<svg xmlns="http://www.w3.org/2000/svg" xmlns:xlink="http://www.w3.org/1999/xlink" viewBox="0 0 289.14 289.14"><defs><style>.cls-1{fill:url(#linear-gradient);}.cls-2{fill:#fff;}</style><linearGradient id="linear-gradient" x1="20.05" y1="194.53" x2="288.46" y2="86.83" gradientUnits="userSpaceOnUse"><stop offset="0" stop-color="#1db954"/><stop offset="0.99" stop-color="#009245"/></linearGradient></defs><g id="Layer_2" data-name="Layer 2"><g id="Layer_1-2" data-name="Layer 1"><circle class="cls-1" cx="144.57" cy="144.57" r="144.57"/><path class="cls-2" d="M153,237.84c-12.44,0-18.18-42.49-24.91-102.52-4.55-40.53-9.25-82.44-17-82.44-8.14,0-12.23,34.91-15.84,65.71-4.39,37.57-8.55,73-19.68,74.13a3.11,3.11,0,0,1-.43,0c-11.79,0-20.28-46.51-21.22-51.88l1.57-.27c2.48,14.19,10.8,50.56,19.62,50.56h.31c9.86-1,14.32-39.1,18.26-72.74,4.21-36,7.86-67.11,17.41-67.11,8.56,0,12.73,31.67,18.58,83.84C135,182.54,141,236.25,153,236.25s16.25-42.73,20-80.44c3.5-35.52,6.53-66.2,15.55-66.2h0c9.14,0,12.18,16.7,13.64,24.72.17.91.31,1.7.44,2.35,1.37,6.77,2.45,13.71,3.48,20.42,1.31,8.49,2.66,17.27,4.64,25.76,1.15,4.94,5,15.44,9.41,16.3,1.61.3,3.3-.75,5-3.16,5.62-8,6.47-20.67,7.15-30.84.09-1.36.18-2.68.28-3.94l1.58.13c-.1,1.25-.18,2.56-.28,3.92-.69,10.36-1.56,23.26-7.43,31.64-2.08,3-4.29,4.23-6.58,3.8-5.66-1.09-9.61-13-10.66-17.49-2-8.55-3.34-17.36-4.66-25.88-1-6.69-2.1-13.61-3.46-20.34-.13-.66-.28-1.47-.45-2.39-1.38-7.59-4.26-23.41-12.08-23.41h0c-7.58,0-10.83,32.92-14,64.77C170.6,196.22,166.49,237.84,153,237.84Z"/><path class="cls-2" d="M154,228.22c-11.21,0-17.63-38.24-25.49-92.27-5.3-36.48-10.79-74.2-17.76-74.2-7.33,0-12.08,31.46-16.28,59.21-5.1,33.78-9.92,65.68-19.94,66.65a2.55,2.55,0,0,1-.39,0c-10.65,0-19.85-41.86-20.88-46.68l1.46-.31c2.71,12.76,11.42,45.5,19.39,45.5h.28c8.86-.86,14-35.15,18.61-65.39,4.9-32.45,9.14-60.48,17.75-60.48,7.71,0,12.41,28.52,19.24,75.47,6.2,42.66,13.22,91,24,91s16-38.46,20.6-72.4c4.32-32,8-59.58,16.18-59.58,8.61,0,11.82,16.3,13.18,23.25l.23,1.13q1.31,6.5,2.57,13c1.83,9.4,3.72,19.12,5.91,28.52,1.09,4.72,4.82,13.86,8.86,14.65,1.51.3,3.05-.66,4.56-2.83,5.67-8.09,6.68-21.28,7.42-30.92l0-.36,1.49.11,0,.36c-.76,9.81-1.79,23.24-7.69,31.66-1.88,2.7-3.91,3.85-6.06,3.44-5.54-1.07-9.33-12.71-10-15.77-2.2-9.43-4.09-19.16-5.92-28.57q-1.27-6.54-2.57-13l-.23-1.14c-1.18-6-4.33-22.05-11.72-22.05-6.83,0-10.83,29.63-14.7,58.29C171.13,190.76,166.08,228.22,154,228.22Z"/><path class="cls-2" d="M154.88,218.59c-10.75,0-18.53-41.69-26.06-82-6.06-32.42-12.32-65.95-18.52-65.95-6.51,0-11.94,28-16.73,52.72-5.81,30-11.29,58.3-20.19,59.16l-.35,0c-9.51,0-19.43-37.21-20.54-41.5l1.35-.35c2.94,11.35,12,40.46,19.16,40.46l.24,0c7.87-.76,13.76-31.19,19-58,5.6-28.9,10.44-53.85,18.1-53.85,6.86,0,12.09,25.34,19.89,67.08,7.08,37.92,15.1,80.89,24.69,80.89s15.79-34.19,21.24-64.35c5.13-28.42,9.57-53,16.79-53,5.46,0,9.87,7.51,12.74,21.71,1.52,7.52,3.47,15.24,5.35,22.72,1.18,4.68,2.4,9.51,3.49,14.22.82,3.5,4.37,12.22,8.32,13,1.38.27,2.79-.56,4.14-2.49,4-5.68,6.49-15,7.47-27.79l1.4.11c-1,13-3.6,22.59-7.72,28.48-1.7,2.42-3.55,3.45-5.55,3.06-4.92-.95-8.62-10.62-9.41-14-1.09-4.69-2.31-9.52-3.49-14.19-1.88-7.49-3.84-15.23-5.37-22.78-2.68-13.28-6.72-20.59-11.37-20.59-6,0-10.82,26.34-15.42,51.81C171.67,185.3,165.66,218.59,154.88,218.59Z"/><path class="cls-2" d="M155.8,209c-8.75,0-16.22-28.42-26.63-71.77-6.81-28.37-13.85-57.7-19.27-57.7-5.7,0-11.8,24.56-17.19,46.23-6.51,26.18-12.65,50.9-20.43,51.66H72c-8.37,0-19-32.55-20.21-36.3l1.24-.4c3.17,9.94,12.68,35.4,18.94,35.4h.21c6.87-.66,13.47-27.23,19.3-50.68,6.3-25.33,11.73-47.21,18.45-47.21,6,0,11.77,22.17,20.54,58.7,8,33.17,17,70.77,25.36,70.77s15.57-29.92,21.89-56.32C183.64,126.49,188.78,105,195.1,105c8.12,0,11.91,18.24,12.07,19A169.3,169.3,0,0,0,212,141.41c1.57,4.92,3.2,10,4.34,15,.82,3.49,4.29,10.66,7.76,11.33,1.33.26,2.54-.45,3.73-2.16,4.36-6.23,6.91-16.69,7.5-24.29l1.29.1c-.55,7.2-2.91,18.06-7.72,24.94-1.5,2.14-3.19,3-5,2.69-4.42-.86-8-9-8.78-12.31-1.14-4.9-2.76-10-4.32-14.86a171.56,171.56,0,0,1-4.9-17.5c-1-5-4.93-18-10.79-18-5.3,0-10.81,23.05-16.15,45.33C172.21,179.83,165.24,209,155.8,209Z"/><path class="cls-2" d="M156.72,199.35c-7.5,0-15.64-24.36-27.19-61.52-7.21-23.18-15.38-49.46-20-49.46-4.89,0-11.68,21.11-17.67,39.74-7.19,22.38-14,43.52-20.65,44.17h-.27c-7.23,0-18.58-27.89-19.87-31.11l1.12-.45c3.4,8.52,13.32,30.35,18.72,30.35h.18c5.87-.56,13.18-23.28,19.62-43.33,7-21.77,13-40.58,18.82-40.58,5.16,0,11.44,19,21.18,50.32,8.84,28.43,18.87,60.66,26,60.66s15.36-25.64,22.54-48.27c6.76-21.31,12.61-39.71,18-39.72,6.6,0,10.87,13.81,11.39,16.35.95,4.72,2.95,9.61,4.89,14.33a92.1,92.1,0,0,1,4.68,13.37c.62,2.64,4,9,7.21,9.67,1.22.24,2.28-.37,3.31-1.83a48,48,0,0,0,7.52-20.8l1.2.09a49.2,49.2,0,0,1-7.73,21.4c-1.63,2.33-3.36,2.55-4.53,2.32-4.13-.8-7.55-8-8.15-10.58a90.07,90.07,0,0,0-4.63-13.18c-1.95-4.78-4-9.72-5-14.55-.88-4.38-5.21-15.38-10.2-15.38-4.54,0-10.82,19.76-16.88,38.87C172.74,174.38,164.82,199.35,156.72,199.35Z"/><path class="cls-2" d="M157.65,189.72c-6.72,0-16.94-24.89-27.76-51.25C122,119.14,113,97.24,109.11,97.24c-4.09,0-11.58,17.67-18.19,33.27-7.87,18.57-15.31,36.12-20.85,36.65l-.22,0c-6.09,0-18.15-23.24-19.52-25.91l1-.51c5.24,10.25,14.43,25.31,18.5,25.31H70c4.88-.48,12.87-19.34,19.93-36,8.95-21.12,14.71-33.94,19.21-33.94s11.14,15.93,21.81,41.92c9.73,23.7,20.75,50.56,26.73,50.56s15.14-21.38,23.19-40.24c8.78-20.58,14.42-33.08,18.63-33.08,5.14,0,10,10.26,10.72,13.66.78,3.85,2.92,7.84,5,11.7s4.07,7.6,4.95,11.38c.47,2,3.63,7.43,6.64,8a2.79,2.79,0,0,0,2.91-1.49c3.36-4.8,7.15-12.26,7.54-17.31l1.11.09c-.41,5.28-4.18,12.78-7.74,17.86-1.39,2-3,2.15-4,1.94-3.55-.69-7-6.48-7.51-8.84-.85-3.65-2.88-7.44-4.85-11.11-2.11-3.94-4.29-8-5.1-12-.64-3.18-5.42-12.77-9.63-12.77-3.78,0-10.81,16.47-17.61,32.41C173.27,168.92,164.39,189.72,157.65,189.72Z"/><path class="cls-2" d="M158.57,180.1c-5,0-14.45-16.23-28.3-41-8.66-15.46-18.47-33-21.56-33-3.28,0-11.5,14.24-18.75,26.79-8.52,14.77-16.58,28.72-21,29.15-4.76.48-17.87-18.53-19.34-20.7l.83-.57c5.59,8.21,15,20.27,18.29,20.27h.13c3.89-.38,12.55-15.39,20.2-28.64,9.81-17,16-27.3,19.63-27.3s10.81,12.74,22.44,33.52c10.61,19,22.64,40.46,27.42,40.46S173.5,162,182.43,146.86c9.72-16.44,15.86-26.43,19.23-26.43,4.21,0,9.51,8.37,10,11,.61,3,2.9,6.16,5.12,9.21s4.47,6.16,5.19,9.26c.37,1.57,3.34,5.82,6.06,6.34a2.35,2.35,0,0,0,2.52-1.15l1.06-1.49c2.63-3.68,6.23-8.71,6.5-12.32l1,.08c-.29,3.89-4,9.06-6.68,12.83-.38.53-.74,1-1.06,1.48a3.35,3.35,0,0,1-3.54,1.57c-3.09-.6-6.39-5.09-6.86-7.11-.67-2.9-2.88-5.94-5-8.89-2.28-3.14-4.64-6.38-5.29-9.6-.52-2.55-5.7-10.17-9.05-10.17-3,0-10.82,13.19-18.36,25.94C173.79,163.46,164,180.1,158.57,180.1Z"/><path class="cls-2" d="M159.5,170.47c-3.75,0-13.86-12.16-28.84-30.71-9.39-11.61-20-24.77-22.35-24.77-2.48,0-11.48,10.79-19.41,20.32-9.13,11-17.75,21.31-21,21.63h-.13c-3.8,0-17.26-13.91-18.8-15.51l.66-.64C55.52,147,65.15,156,67.69,156h.1c2.9-.28,12.2-11.44,20.4-21.3,10.71-12.85,17.4-20.65,20.12-20.65s10.48,9.54,23.06,25.11c10.93,13.54,24.54,30.38,28.13,30.38s14.72-12.85,24.52-24.19c10.62-12.28,17.26-19.81,19.83-19.81,3.11,0,9,6.31,9.37,8.3.44,2.18,2.88,4.51,5.23,6.77s4.88,4.68,5.44,7.08c.25,1.06,3.05,4.21,5.45,4.68a2,2,0,0,0,2.16-.82,34.25,34.25,0,0,1,2.73-3.18c2.2-2.4,4.7-5.12,4.86-7.14l.91.07c-.18,2.34-2.79,5.18-5.1,7.69a34.65,34.65,0,0,0-2.65,3.09,2.84,2.84,0,0,1-3.08,1.19c-2.77-.54-5.84-3.93-6.18-5.37-.49-2.13-2.87-4.42-5.18-6.62-2.45-2.36-5-4.79-5.5-7.26-.32-1.61-5.87-7.56-8.46-7.56-2.28,0-10.85,9.91-19.13,19.49C174.3,158,163.53,170.47,159.5,170.47Z"/><path class="cls-2" d="M160.42,160.85c-2.49,0-13.24-8.09-29.35-20.45-10.13-7.75-21.6-16.54-23.15-16.54-1.7,0-11.59,7.36-20.33,13.87-11.28,8.39-18.82,13.9-20.82,14.09h-.09c-2.66,0-16.79-9.24-18.41-10.31l.45-.69c6,4,16.14,10.18,17.91,10.18h.06c1.92-.19,11.74-7.5,20.41-13.95,11.73-8.73,19-14,20.82-14s10.12,6.36,23.65,16.72c11.78,9,26.45,20.28,28.85,20.28s14.54-8.59,25.23-16.16c11.53-8.17,18.68-13.17,20.39-13.17,2,0,8.38,4.09,8.69,5.61.28,1.37,2.85,2.91,5.35,4.39,2.72,1.62,5.3,3.16,5.69,4.84.13.58,2.62,2.6,4.76,3,.91.18,1.54,0,1.88-.47a15.49,15.49,0,0,1,3.37-2.79c1.85-1.32,4.15-2.95,4.24-4l.82.06c-.11,1.47-2.39,3.08-4.59,4.64a16.14,16.14,0,0,0-3.17,2.59,2.43,2.43,0,0,1-2.7.81c-2.26-.44-5.16-2.54-5.41-3.63-.32-1.34-2.86-2.86-5.32-4.32-2.77-1.65-5.38-3.21-5.73-4.93-.21-1-6.12-5-7.88-5-1.53,0-11.3,6.92-19.92,13C174.81,152.56,163.11,160.85,160.42,160.85Z"/><path class="cls-2" d="M161.35,151.23c-1.24,0-12.63-4-29.86-10.21-11.36-4.06-23.1-8.26-24-8.29s-12.77,4.13-22.31,7.45c-11.53,4-18.6,6.44-19.54,6.53h0c-1.48,0-15.24-4.28-18-5.14l.21-.7c6.37,2,16.74,5.11,17.76,5.11h0c.92-.09,10.3-3.35,19.37-6.51C98,135,106.57,132,107.52,132s9.76,3.17,24.22,8.34c12.65,4.52,28.4,10.16,29.61,10.16s14.92-4.49,25.94-8.1c12.43-4.07,20.09-6.57,20.93-6.57.44,0,7.81,1.87,8,2.94.12.55,3.47,1.49,5.46,2,3.55,1,5.73,1.64,6,2.57a11.73,11.73,0,0,0,4.84,1.41h.07c.58,0,.73-.15.76-.2.34-.49,1.63-1,3.71-1.65,1.4-.48,3.75-1.28,3.93-1.7l.72.07c-.06.75-1.39,1.28-4.42,2.32a14.18,14.18,0,0,0-3.35,1.38c-.37.53-1.33.65-2.83.35-1-.19-4-1-4.14-1.82-.13-.55-3.45-1.47-5.43-2-3.58-1-5.79-1.66-6-2.59-.45-.49-6.38-2.36-7.31-2.36s-10.92,3.33-20.71,6.53C172.51,148,162.59,151.23,161.35,151.23Z"/><rect class="cls-2" x="46.93" y="140.97" width="195.27" height="0.63"/></g></g></svg>