<svg xmlns="http://www.w3.org/2000/svg" xmlns:xlink="http://www.w3.org/1999/xlink" viewBox="0 0 227.86 227.86"><defs><style>.cls-1{fill:url(#linear-gradient);}.cls-2{fill:#fff;}</style><linearGradient id="linear-gradient" x1="15.8" y1="153.3" x2="227.33" y2="68.43" gradientUnits="userSpaceOnUse"><stop offset="0" stop-color="#1db954"/><stop offset="0.99" stop-color="#009245"/></linearGradient></defs><g id="Layer_2" data-name="Layer 2"><g id="Layer_1-2" data-name="Layer 1"><circle class="cls-1" cx="113.93" cy="113.93" r="113.93"/><path class="cls-2" d="M120.59,187.44c-9.81,0-14.32-33.49-19.63-80.8-3.58-31.94-7.29-65-13.41-65-6.41,0-9.63,27.51-12.48,51.79-3.46,29.6-6.74,57.57-15.51,58.42l-.34,0c-9.29,0-16-36.65-16.72-40.88l1.23-.22c2,11.18,8.52,39.85,15.47,39.85h.24c7.77-.75,11.29-30.81,14.39-57.33C77.16,64.93,80,40.42,87.55,40.42c6.75,0,10,25,14.65,66.08,4.19,37.35,8.94,79.69,18.39,79.69s12.81-33.68,15.74-63.4c2.76-28,5.15-52.17,12.25-52.17h0c7.19,0,9.59,13.16,10.74,19.48.13.71.25,1.34.35,1.85,1.08,5.34,1.93,10.81,2.74,16.1,1,6.69,2.1,13.6,3.65,20.29.91,3.9,3.92,12.17,7.43,12.85,1.26.24,2.59-.59,3.92-2.49,4.43-6.32,5.1-16.29,5.63-24.31.08-1.07.15-2.1.22-3.09l1.25.09c-.08,1-.15,2-.22,3.09-.55,8.17-1.23,18.33-5.86,24.94-1.64,2.33-3.38,3.33-5.18,3-4.46-.87-7.58-10.25-8.4-13.79-1.57-6.74-2.64-13.68-3.67-20.39-.82-5.28-1.66-10.73-2.73-16-.11-.52-.22-1.15-.35-1.88-1.1-6-3.37-18.45-9.52-18.45h0c-6,0-8.53,25.95-11,51C134.44,154.63,131.21,187.44,120.59,187.44Z"/><path class="cls-2" d="M121.32,179.85c-8.83,0-13.89-30.14-20.08-72.71-4.18-28.75-8.5-58.47-14-58.47-5.77,0-9.52,24.78-12.83,46.66-4,26.61-7.82,51.76-15.71,52.52l-.31,0c-8.39,0-15.65-33-16.46-36.79l1.15-.25c2.14,10.06,9,35.86,15.28,35.86h.22c7-.67,11.07-27.69,14.67-51.53,3.87-25.57,7.2-47.66,14-47.66C93.31,47.49,97,70,102.4,107c4.89,33.61,10.42,71.71,18.92,71.71s12.63-30.31,16.24-57.05c3.41-25.2,6.35-47,12.75-47,6.79,0,9.31,12.84,10.39,18.33l.17.88c.7,3.41,1.36,6.84,2,10.28,1.44,7.41,2.94,15.07,4.66,22.48.86,3.72,3.8,10.92,7,11.54,1.2.23,2.4-.52,3.6-2.23,4.46-6.37,5.26-16.77,5.85-24.37l0-.28,1.17.09,0,.28c-.6,7.73-1.41,18.32-6.06,25-1.49,2.13-3.08,3-4.78,2.71-4.37-.85-7.35-10-7.91-12.43-1.72-7.42-3.22-15.1-4.66-22.52-.67-3.43-1.34-6.86-2-10.26l-.18-.9c-.93-4.75-3.41-17.38-9.23-17.38-5.38,0-8.53,23.36-11.58,45.94C134.87,150.33,130.88,179.85,121.32,179.85Z"/><path class="cls-2" d="M122.05,172.27c-8.46,0-14.6-32.86-20.53-64.64-4.78-25.55-9.71-52-14.6-52-5.13,0-9.41,22.07-13.18,41.54-4.58,23.63-8.9,45.94-15.91,46.62l-.28,0c-7.49,0-15.31-29.32-16.19-32.71l1.07-.27c2.31,8.94,9.5,31.88,15.1,31.88h.19c6.2-.6,10.84-24.58,14.94-45.74,4.42-22.77,8.22-42.43,14.26-42.43,5.41,0,9.53,20,15.68,52.87,5.58,29.87,11.9,63.74,19.45,63.74s12.45-26.95,16.74-50.72c4.05-22.39,7.55-41.73,13.24-41.73,4.3,0,7.77,5.91,10,17.1,1.2,5.92,2.73,12,4.22,17.91.93,3.68,1.89,7.49,2.75,11.2.64,2.76,3.44,9.63,6.55,10.23,1.09.22,2.2-.44,3.26-2,3.14-4.48,5.12-11.84,5.89-21.9l1.1.09c-.79,10.25-2.83,17.8-6.08,22.44-1.34,1.9-2.8,2.72-4.38,2.41-3.87-.75-6.79-8.37-7.41-11.06-.86-3.7-1.82-7.5-2.75-11.18-1.49-5.91-3-12-4.23-18-2.12-10.46-5.3-16.23-9-16.23-4.77,0-8.53,20.76-12.15,40.84C135.29,146,130.55,172.27,122.05,172.27Z"/><path class="cls-2" d="M122.78,164.68c-6.89,0-12.78-22.39-21-56.56C96.43,85.77,90.88,62.65,86.61,62.65c-4.49,0-9.3,19.36-13.55,36.43-5.13,20.63-10,40.12-16.1,40.71l-.24,0c-6.6,0-15-25.66-15.93-28.61l1-.32c2.5,7.83,10,27.9,14.92,27.9h.17c5.41-.52,10.62-21.46,15.21-39.93,5-20,9.25-37.22,14.54-37.22,4.74,0,9.27,17.48,16.18,46.26,6.28,26.15,13.39,55.78,20,55.78s12.27-23.58,17.25-44.38c4.69-19.6,8.74-36.52,13.72-36.52,6.4,0,9.39,14.38,9.51,15a134,134,0,0,0,3.84,13.69c1.23,3.88,2.51,7.89,3.42,11.79.64,2.75,3.37,8.39,6.11,8.92,1.05.2,2-.35,2.94-1.7,3.44-4.91,5.45-13.16,5.91-19.14l1,.07c-.44,5.68-2.3,14.24-6.09,19.66-1.18,1.69-2.51,2.4-4,2.12-3.48-.68-6.32-7.13-6.92-9.7-.9-3.86-2.17-7.85-3.4-11.71A133.72,133.72,0,0,1,162.26,98c-.8-3.94-3.89-14.17-8.51-14.17-4.17,0-8.52,18.16-12.72,35.72C135.71,141.72,130.22,164.68,122.78,164.68Z"/><path class="cls-2" d="M123.51,157.1c-5.91,0-12.33-19.19-21.43-48.48-5.69-18.27-12.13-39-15.78-39-3.86,0-9.21,16.64-13.93,31.32-5.67,17.64-11,34.3-16.28,34.81h-.21c-5.7,0-14.64-22-15.65-24.52l.88-.35c2.68,6.71,10.49,23.92,14.75,23.92H56c4.63-.45,10.39-18.35,15.47-34.15,5.51-17.16,10.28-32,14.83-32,4.06,0,9,15,16.69,39.65,7,22.41,14.86,47.81,20.52,47.81s12.1-20.21,17.76-38c5.33-16.8,9.93-31.3,14.21-31.3,5.2,0,8.57,10.88,9,12.88a65.64,65.64,0,0,0,3.86,11.3A72.13,72.13,0,0,1,172,121.52c.49,2.08,3.13,7.13,5.68,7.62,1,.19,1.8-.29,2.61-1.44a37.72,37.72,0,0,0,5.92-16.39l.95.07a38.87,38.87,0,0,1-6.09,16.87c-1.28,1.83-2.65,2-3.57,1.82-3.26-.63-5.95-6.29-6.43-8.34a71.08,71.08,0,0,0-3.64-10.39,65.74,65.74,0,0,1-3.91-11.46c-.7-3.45-4.11-12.12-8-12.12-3.58,0-8.52,15.57-13.31,30.63C136.13,137.42,129.89,157.1,123.51,157.1Z"/><path class="cls-2" d="M124.24,149.51c-5.3,0-13.35-19.62-21.87-40.38C96.11,93.89,89,76.63,86,76.63c-3.22,0-9.12,13.93-14.33,26.22-6.2,14.64-12.06,28.47-16.43,28.89h-.17c-4.8,0-14.3-18.31-15.39-20.42l.79-.4C44.58,119,51.81,130.87,55,130.87h.12c3.84-.38,10.15-15.25,15.71-28.36C77.9,85.86,82.44,75.76,86,75.76s8.79,12.55,17.19,33c7.67,18.68,16.36,39.85,21.07,39.85s11.93-16.85,18.27-31.71c6.93-16.22,11.37-26.07,14.69-26.07,4.05,0,7.9,8.08,8.45,10.76.61,3,2.29,6.18,3.93,9.22a38.64,38.64,0,0,1,3.9,9c.37,1.61,2.86,5.86,5.23,6.31A2.19,2.19,0,0,0,181,125c2.65-3.78,5.64-9.66,5.95-13.64l.87.07c-.32,4.16-3.29,10.07-6.1,14.07a3,3,0,0,1-3.18,1.53c-2.79-.54-5.48-5.1-5.91-7a38.17,38.17,0,0,0-3.82-8.75c-1.67-3.1-3.38-6.31-4-9.46-.51-2.51-4.28-10.07-7.59-10.07-3,0-8.52,13-13.88,25.54C136.55,133.12,129.55,149.51,124.24,149.51Z"/><path class="cls-2" d="M125,141.93c-4,0-11.4-12.79-22.31-32.3-6.82-12.19-14.55-26-17-26-2.59,0-9.06,11.21-14.77,21.11-6.72,11.64-13.07,22.63-16.54,23-3.76.37-14.09-14.61-15.25-16.31l.66-.45c4.4,6.47,11.81,16,14.41,16h.1c3.07-.29,9.9-12.13,15.92-22.57C77.93,91,82.83,82.83,85.67,82.83s8.52,10,17.69,26.41c8.36,15,17.84,31.89,21.61,31.89s11.76-13.49,18.8-25.39c7.66-13,12.5-20.84,15.15-20.84,3.32,0,7.5,6.6,7.92,8.66.48,2.37,2.28,4.85,4,7.25s3.52,4.86,4.09,7.3c.29,1.24,2.63,4.58,4.78,5a1.86,1.86,0,0,0,2-.91l.84-1.18c2.07-2.89,4.9-6.86,5.12-9.71l.8.07c-.24,3.06-3.15,7.14-5.27,10.11-.3.41-.58.81-.83,1.17a2.65,2.65,0,0,1-2.8,1.23c-2.43-.47-5-4-5.4-5.6-.53-2.28-2.27-4.68-4-7s-3.65-5-4.17-7.56c-.4-2-4.48-8-7.13-8-2.38,0-8.53,10.4-14.47,20.45C137,128.82,129.22,141.93,125,141.93Z"/><path class="cls-2" d="M125.7,134.35c-3,0-10.92-9.59-22.73-24.21C95.57,101,87.19,90.62,85.36,90.62s-9,8.51-15.3,16c-7.19,8.64-14,16.8-16.57,17.05h-.11c-3,0-13.6-11-14.81-12.22l.52-.5c4.67,4.86,12.25,12,14.26,12h.07c2.29-.22,9.62-9,16.08-16.79C77.94,96,83.21,89.89,85.36,89.89s8.25,7.53,18.17,19.8c8.61,10.66,19.34,23.93,22.17,23.93S137.3,123.5,145,114.56c8.37-9.68,13.6-15.61,15.63-15.61,2.45,0,7.06,5,7.38,6.54.35,1.72,2.27,3.56,4.12,5.34s3.85,3.69,4.29,5.57a7.47,7.47,0,0,0,4.3,3.69,1.54,1.54,0,0,0,1.7-.64,26.89,26.89,0,0,1,2.15-2.51c1.74-1.89,3.71-4,3.83-5.62l.72.05c-.14,1.84-2.2,4.08-4,6.06a26.44,26.44,0,0,0-2.09,2.44,2.23,2.23,0,0,1-2.43.93,8,8,0,0,1-4.86-4.23c-.39-1.68-2.27-3.48-4.09-5.22s-3.94-3.77-4.33-5.72c-.26-1.26-4.63-5.95-6.67-5.95-1.8,0-8.55,7.8-15.08,15.36C137.36,124.53,128.88,134.35,125.7,134.35Z"/><path class="cls-2" d="M126.43,126.76c-2,0-10.44-6.38-23.14-16.11-8-6.11-17-13-18.24-13s-9.14,5.8-16,10.93c-8.89,6.61-14.83,11-16.41,11.11h-.07c-2.1,0-13.23-7.28-14.51-8.12l.35-.54c4.76,3.12,12.72,8,14.12,8h.05c1.51-.14,9.25-5.9,16.08-11C77.89,101.14,83.6,97,85.05,97s8,5,18.63,13.17c9.29,7.12,20.86,16,22.75,16s11.45-6.76,19.87-12.73C155.39,106.94,161,103,162.37,103c1.61,0,6.61,3.23,6.85,4.43s2.25,2.28,4.22,3.45c2.14,1.28,4.17,2.49,4.48,3.82a6.79,6.79,0,0,0,3.76,2.37c.71.14,1.21,0,1.47-.37a12.37,12.37,0,0,1,2.66-2.2c1.46-1,3.28-2.33,3.34-3.18l.65.05c-.09,1.16-1.88,2.43-3.62,3.66a12.37,12.37,0,0,0-2.49,2,2,2,0,0,1-2.14.64c-1.78-.35-4.06-2-4.26-2.86-.25-1.06-2.25-2.26-4.19-3.41-2.18-1.3-4.24-2.53-4.51-3.89-.17-.81-4.83-3.9-6.22-3.9-1.2,0-8.9,5.45-15.69,10.26C137.76,120.23,128.54,126.76,126.43,126.76Z"/><path class="cls-2" d="M127.16,119.18c-1,0-10-3.19-23.54-8-9-3.2-18.2-6.51-18.89-6.54s-10.06,3.25-17.58,5.87c-9.08,3.16-14.65,5.08-15.4,5.15h0c-1.16,0-12-3.36-14.19-4.05l.17-.54c5,1.56,13.19,4,14,4h0c.73-.07,8.12-2.64,15.27-5.13C77.21,106.36,84,104,84.73,104s7.7,2.49,19.09,6.57c10,3.56,22.38,8,23.34,8s11.76-3.54,20.44-6.38c9.79-3.21,15.83-5.17,16.49-5.17.35,0,6.16,1.47,6.32,2.31.1.43,2.73,1.17,4.31,1.61,2.79.78,4.52,1.29,4.69,2a9.12,9.12,0,0,0,3.81,1.12h.06c.45,0,.57-.12.59-.16.27-.39,1.29-.75,2.92-1.31,1.11-.37,3-1,3.1-1.33l.57.06c0,.59-1.1,1-3.48,1.82a11,11,0,0,0-2.64,1.09c-.29.42-1.05.51-2.23.28-.79-.16-3.12-.81-3.27-1.44-.1-.43-2.71-1.16-4.28-1.6-2.82-.79-4.56-1.31-4.71-2a24.94,24.94,0,0,0-5.76-1.86c-.63,0-8.6,2.62-16.32,5.15C136,116.64,128.13,119.18,127.16,119.18Z"/><rect class="cls-2" x="36.99" y="111.1" width="153.88" height="0.5"/></g></g></svg>